<svg aria-hidden="true" style="position:absolute;width:0;height:0" xmlns="http://www.w3.org/2000/svg" overflow="hidden">
    <defs>
        <symbol id="icon-arrow_drop_down-24px-1" viewBox="0 0 32 32">
            <path d="M9.333 13.333L16 20l6.667-6.667H9.334z" />
        </symbol>
        <symbol id="icon-chevron_left-24px-1-1" viewBox="0 0 32 32">
            <path d="M20.307 10.202l-1.781-1.781L10.947 16l7.579 7.579 1.781-1.781L14.522 16l5.785-5.798z" />
        </symbol>
        <symbol id="icon-chevron_right-24px-1" viewBox="0 0 32 32">
            <path fill="var(--color1, #fff)" d="M11.453 9.88L13.333 8l8 8-8 8-1.88-1.88L17.56 16l-6.107-6.12z" />
        </symbol>
        <symbol id="icon-close-24px-1" viewBox="0 0 32 32">
            <path
                d="M25.333 8.547l-1.88-1.88L16 14.12 8.547 6.667l-1.88 1.88L14.12 16l-7.453 7.453 1.88 1.88L16 17.88l7.453 7.453 1.88-1.88L17.88 16l7.453-7.453z" />
        </symbol>
        <symbol id="icon-copyright-24px-1" viewBox="0 0 32 32">
            <path
                d="M13.44 14.48c.067-.44.213-.827.4-1.16s.453-.613.787-.827c.32-.2.72-.293 1.213-.307.307.013.587.067.84.173.267.12.507.28.693.48s.333.44.453.707c.12.267.173.56.187.853H20.4c-.027-.627-.147-1.2-.373-1.72a4 4 0 00-.933-1.347c-.4-.373-.88-.667-1.44-.88s-1.173-.307-1.853-.307c-.867 0-1.627.147-2.267.453s-1.173.707-1.6 1.227c-.427.52-.747 1.12-.947 1.813s-.32 1.413-.32 2.187v.36c0 .773.107 1.493.307 2.187s.52 1.293.947 1.8c.427.507.96.92 1.6 1.213s1.4.453 2.267.453c.627 0 1.213-.107 1.76-.307s1.027-.48 1.44-.84c.413-.36.747-.773.987-1.253s.387-.987.4-1.533h-2.387c-.013.28-.08.533-.2.773s-.28.44-.48.613c-.2.173-.427.307-.693.4-.253.093-.52.12-.8.133-.48-.013-.88-.107-1.187-.307-.333-.213-.6-.493-.787-.827s-.333-.733-.4-1.173a8.938 8.938 0 01-.107-1.333v-.36c0-.467.04-.907.107-1.347zM16 2.667C8.64 2.667 2.667 8.64 2.667 16S8.64 29.333 16 29.333 29.333 23.36 29.333 16 23.36 2.667 16 2.667zm0 24C10.12 26.667 5.333 21.88 5.333 16S10.12 5.333 16 5.333 26.667 10.12 26.667 16 21.88 26.667 16 26.667z" />
        </symbol>
        <symbol id="icon-edit-1-1" viewBox="0 0 32 32">
            <path fill="var(--color1, #fff)"
                d="M32 29.714H0v2.971h32v-2.971zM21.927 1.038L5.402 17.563v7.579h7.579L29.506 8.618l-7.579-7.579zM11.87 22.464H8.08v-3.79L21.926 4.828l3.79 3.79L11.87 22.464z" />
        </symbol>
        <symbol id="icon-file-1" viewBox="0 0 32 32">
            <path fill="var(--color2, #bbb)"
                d="M20.8 0H1.6v32h28.8V9.6L20.8 0zm0 4.528L25.872 9.6H20.8V4.528zM27.2 28.8H4.8V3.2h12.8v9.6h9.6v16z" />
            <path fill="var(--color2, #bbb)"
                d="M22.016 15.473l-2.256-2.272-3.728 3.728-3.904-3.904-2.256 2.272 3.888 3.888-3.696 3.712 2.256 2.256 3.712-3.696 3.728 3.728 2.256-2.272-3.728-3.728 3.728-3.712z" />
        </symbol>
        <symbol id="icon-fullscreen-24px-1" viewBox="0 0 32 32">
            <path fill="var(--color1, #fff)"
                d="M9.143 18.743H6.4V25.6h6.857v-2.743H9.143v-4.114zM6.4 13.257h2.743V9.143h4.114V6.4H6.4v6.857zm16.457 9.6h-4.114V25.6H25.6v-6.857h-2.743v4.114zM18.743 6.4v2.743h4.114v4.114H25.6V6.4h-6.857z" />
        </symbol>
        <symbol id="icon-plus" viewBox="0 0 32 32">
            <path fill="none" stroke="var(--color1, #fff)" stroke-width="4.571" d="M16 0v32M0 16h32" />
        </symbol>
        <symbol id="icon-heart" viewBox="0 0 32 32">
            <path 
                d="M16 30.22c-.456 0-.895-.165-1.237-.465a361.18 361.18 0 00-3.639-3.13l-.006-.005c-3.224-2.747-6.008-5.12-7.945-7.457-2.165-2.613-3.174-5.09-3.174-7.796 0-2.629.902-5.055 2.539-6.831C4.194 2.739 6.467 1.75 8.939 1.75c1.847 0 3.539.584 5.028 1.736A10.288 10.288 0 0116 5.609c.6-.83 1.281-1.541 2.033-2.123 1.489-1.152 3.181-1.736 5.028-1.736 2.471 0 4.744.99 6.401 2.786C31.099 6.312 32 8.737 32 11.367c0 2.706-1.008 5.184-3.174 7.796-1.937 2.337-4.721 4.71-7.944 7.457-1.102.939-2.35 2.003-3.645 3.136A1.88 1.88 0 0116 30.22zM8.939 3.624c-1.942 0-3.725.775-5.023 2.182-1.317 1.428-2.042 3.403-2.042 5.56 0 2.276.846 4.312 2.743 6.6 1.833 2.212 4.56 4.536 7.717 7.227l.006.005c1.104.941 2.355 2.007 3.657 3.146a430.966 430.966 0 013.669-3.151c3.157-2.691 5.883-5.014 7.717-7.226 1.896-2.289 2.742-4.324 2.742-6.6 0-2.157-.725-4.132-2.042-5.56-1.297-1.407-3.081-2.182-5.023-2.182-1.422 0-2.728.452-3.881 1.344-1.028.795-1.743 1.8-2.163 2.503-.216.362-.596.577-1.016.577s-.801-.216-1.016-.577c-.419-.703-1.135-1.708-2.163-2.503-1.153-.892-2.459-1.344-3.881-1.344z" />
        </symbol>
        <symbol id="icon-logout-1" viewBox="0 0 32 32">
            <path
                d="M3.236 21.654v7.111h25.529V3.236H3.236v7.111H.32V3.556A3.235 3.235 0 013.556.32h24.889a3.235 3.235 0 013.236 3.236v24.889a3.235 3.235 0 01-3.235 3.236H3.557a3.235 3.235 0 01-3.236-3.236v-6.791h2.916zm14.728-7.112l-4.915-4.916 2.063-2.063 8.436 8.436-8.436 8.436-2.063-2.063 4.915-4.916H.32v-2.915h17.644z" />
        </symbol>
        <symbol id="icon-menu-24px-1" viewBox="0 0 32 32">
            <path d="M4 24h24v-2.667H4V24zm0-6.667h24v-2.667H4v2.667zM4 8v2.667h24V8H4z" />
        </symbol>
        <symbol id="icon-replay-24px-1-1" viewBox="0 0 32 32">
            <path
                d="M6.667 16H1.334l6.667 6.667L14.668 16H9.335c0-4.413 3.587-8 8-8s8 3.587 8 8-3.587 8-8 8v2.667c5.893 0 10.667-4.773 10.667-10.667S23.229 5.333 17.335 5.333C11.442 5.333 6.668 10.106 6.668 16z" />
        </symbol>
        <symbol id="icon-search-24px-1" viewBox="0 0 32 32">
            <path fill="var(--color1, #fff)"
                d="M20.667 18.667h-1.053l-.373-.36a8.626 8.626 0 002.093-5.64C21.334 7.88 17.454 4 12.667 4S4 7.88 4 12.667a8.667 8.667 0 008.667 8.667 8.63 8.63 0 005.64-2.093l.36.373v1.053l6.667 6.653 1.987-1.987-6.653-6.667zm-8 0c-3.32 0-6-2.68-6-6s2.68-6 6-6 6 2.68 6 6-2.68 6-6 6z" />
        </symbol>
        <symbol id="icon-share-1-1" viewBox="0 0 32 32">
            <path 
                d="M25.436 21.333c-1.623 0-3.079.73-4.058 1.878l-9.632-5.955a5.313 5.313 0 000-2.512l9.632-5.955a5.322 5.322 0 004.058 1.878c2.941 0 5.333-2.393 5.333-5.333S28.376.001 25.436.001s-5.333 2.393-5.333 5.333c0 .433.053.853.151 1.256l-9.631 5.955a5.322 5.322 0 00-4.058-1.878c-2.941 0-5.333 2.393-5.333 5.333s2.393 5.333 5.333 5.333c1.624 0 3.079-.73 4.058-1.878l9.631 5.955a5.313 5.313 0 00-.151 1.256c0 2.941 2.393 5.333 5.333 5.333s5.333-2.393 5.333-5.333a5.34 5.34 0 00-5.333-5.333zm0-18.871c1.584 0 2.872 1.288 2.872 2.872s-1.288 2.872-2.872 2.872c-1.583 0-2.872-1.288-2.872-2.872s1.288-2.872 2.872-2.872zM6.564 18.872c-1.583 0-2.872-1.288-2.872-2.872s1.288-2.872 2.872-2.872c1.583 0 2.872 1.288 2.872 2.872s-1.288 2.872-2.872 2.872zm18.872 10.666c-1.583 0-2.872-1.288-2.872-2.872s1.288-2.872 2.872-2.872c1.584 0 2.872 1.288 2.872 2.872s-1.288 2.872-2.872 2.872z" />
        </symbol>
        <symbol id="icon-user-profile-1" viewBox="0 0 32 32">
            <path
                d="M29.474 32h-3.242c0-5.47-4.588-9.919-10.232-9.919S5.77 26.531 5.77 32H2.528c0-7.26 6.046-13.161 13.474-13.161 7.427 0 13.472 5.901 13.472 13.161zM16.002 17.785c-4.901 0-8.891-3.991-8.891-8.892C7.109 3.99 11.099 0 16.002 0c4.904 0 8.894 3.988 8.894 8.893s-3.99 8.892-8.894 8.892zm0-14.543c-3.116 0-5.65 2.534-5.65 5.65s2.534 5.65 5.65 5.65c3.118 0 5.652-2.534 5.652-5.65s-2.537-5.65-5.652-5.65z" />
        </symbol>
        <symbol id="icon-line" viewBox="0 0 2 32">
<path fill="none" stroke="#e2e3e5" style="stroke: var(--color1, #e2e3e5)" stroke-linejoin="miter" stroke-linecap="butt" stroke-miterlimit="4" stroke-width="1.6" d="M0.8 0v32"></path>
</symbol>
    </defs>
</svg>
